Cover: 
http://picturestack.com/767/45/MOlStreetdancjWd.jpg

Info:

Format : Matroska
Format version : Version 2
File size : 4.37 GiB
Duration : 1h 24mn
Overall bit rate : 7 361 Kbps
Encoded date : UTC 2012-07-19 19:00:31
Writing application : mkvmerge v5.7.0 ('The Whirlwind') built on Jul 8 2012 20:08:51
Writing library : libebml v1.2.3 + libmatroska v1.3.0

Video
ID : 1
Format : AVC
Format/Info : Advanced Video Codec
Format profile : High@L4.1
Format settings, CABAC : Yes
Format settings, ReFrames : 5 frames
Codec ID : V_MPEG4/ISO/AVC
Duration : 1h 24mn
Bit rate : 6 599 Kbps
Width : 1 280 pixels
Height : 688 pixels
Display aspect ratio : 1.85:1
Frame rate : 23.976 fps
Color space : YUV
Chroma subsampling : 4:2:0
Bit depth : 8 bits
Scan type : Progressive
Bits/(Pixel*Frame) : 0.313
Stream size : 3.83 GiB (88%)
Writing library : x264 core 125 r2200 999b753
Language : English
Default : Yes
Forced : No

Audio
ID : 2
Format : DTS
Format/Info : Digital Theater Systems
Codec ID : A_DTS
Duration : 1h 24mn
Bit rate mode : Constant
Bit rate : 754 Kbps
Channel(s) : 6 channels
Channel positions : Front: L C R, Side: L R, LFE
Sampling rate : 48.0 KHz
Bit depth : 24 bits
Compression mode : Lossy
Stream size : 458 MiB (10%)
Language : English
Default : Yes
Forced : No

Text
ID : 3
Format : UTF-8
Codec ID : S_TEXT/UTF8
Codec ID/Info : UTF-8 Plain Text
Language : English
Default : Yes
Forced : No

SCREENS:
 
http://picturestack.com/767/212/YEThaideafsd2chT.jpg 
http://picturestack.com/767/271/unShaideafsd2wIk.jpg 
http://picturestack.com/767/289/ScUhaideafsd2wys.jpg 
http://picturestack.com/767/309/uNShaideafsd2pOn.jpg 
http://picturestack.com/767/339/swahaideafsd2GP9.jpg